HIERARCHY
ROOT pelvis
{
  OFFSET 0 100 0
  CHANNELS 6 Xposition Yposition Zposition Zrotation Xrotation Yrotation
  JOINT pelvis_right_femur
  {
    OFFSET -10.78128 -3.44521 -0.5502486
    CHANNELS 3 Zrotation Xrotation Yrotation
    JOINT right_femur_tibia
    {
      OFFSET -0.8047443 -44.0398 -0.1307829
      CHANNELS 3 Zrotation Xrotation Yrotation
      JOINT right_tibia_foot
      {
        OFFSET 3.006224 -47.83518 -5
        CHANNELS 3 Zrotation Xrotation Yrotation
        End Site
        {
          OFFSET 0 -5 15
        }
      }
    }
  }
  JOINT pelvis_left_femur
  {
    OFFSET 10.78128 -3.44521 -0.5502486
    CHANNELS 3 Zrotation Xrotation Yrotation
    JOINT left_femur_tibia
    {
      OFFSET 0.8047443 -44.0398 -0.1307829
      CHANNELS 3 Zrotation Xrotation Yrotation
      JOINT left_tibia_foot
      {
        OFFSET -4.370144 -48.10324 -4.275266
        CHANNELS 3 Zrotation Xrotation Yrotation
        End Site
        {
          OFFSET 0 -5 15
        }
      }
    }
  }
  JOINT pelvis_spine1
  {
    OFFSET 0 6.468898 -3.129235
    CHANNELS 3 Zrotation Xrotation Yrotation
    JOINT spine1
    {
      OFFSET 0 23.15396 4.99043
      CHANNELS 3 Zrotation Xrotation Yrotation
      JOINT spine2
      {
        OFFSET 0 20.79997 -5.064912
        CHANNELS 3 Zrotation Xrotation Yrotation
        JOINT neck
        {
          OFFSET 0 14.38658 9.616178
          CHANNELS 3 Zrotation Xrotation Yrotation
          End Site
          {
            OFFSET 0 20 0
          }
        }
      }
      JOINT right_manubrium
      {
        OFFSET -5.722621 16.35077 3.967754
        CHANNELS 3 Zrotation Xrotation Yrotation
        JOINT right_clavicle
        {
          OFFSET -13.16364 1.694482 -4.693211
          CHANNELS 3 Zrotation Xrotation Yrotation
          JOINT right_humerus
          {
            OFFSET -28.5034 -0.3100689 -2.792744
            CHANNELS 3 Zrotation Xrotation Yrotation
            JOINT right_radius
            {
              OFFSET -25.15693 0.02248979 -1.271978
              CHANNELS 3 Zrotation Xrotation Yrotation
              End Site
              {
                OFFSET -15 0 0
              }
            }
          }
        }
      }
      JOINT left_manubrium
      {
        OFFSET 5.722621 16.35077 3.967754
        CHANNELS 3 Zrotation Xrotation Yrotation
        JOINT left_clavicle
        {
          OFFSET 13.16364 1.694482 -4.693211
          CHANNELS 3 Zrotation Xrotation Yrotation
          JOINT left_humerus
          {
            OFFSET 29.39168 -1.063119 -2.237045
            CHANNELS 3 Zrotation Xrotation Yrotation
            JOINT left_radius
            {
              OFFSET 24.59957 -0.9528479 0.9047498
              CHANNELS 3 Zrotation Xrotation Yrotation
              End Site
              {
                OFFSET 15 -0 -0
              }
            }
          }
        }
      }
    }
  }
}
MOTION
Frames: 21
Frame Time: 0.0416666666667
-48.38907 98.14075 2971.545 -0.7226675 -4.129713 -6.512133 3.576795 -25.06452 -0.756122 -0 13.83561 -0 -4.732335 0.7856101 -5.25293 -4.100791 15.27204 -8.39214 -0 25.87701 -0 -4.931114 -17.04449 11.30309 -1.425157 -1.564252 3.320264 2.665335 10.79654 -9.199263 0.7116394 20.94701 7.0972 3.743535 -22.83128 7.334221 3.83217 -16.82375 11.69495 91.00964 30.67946 -25.1838 -0 0 8.743046 -15.22806 12.4008 6.83094 6.39031 -24.33986 -4.404675 -86.557 22.59397 13.26784 0 0 -26.29653 6.961399 13.54789 5.630104
-49.49835 97.99992 2978.097 -0.8722004 -4.807329 -6.450667 4.328115 -23.02689 -0.2478266 -0 12.80366 -0 -4.678574 0.5361097 -5.58518 -3.794677 13.71899 -7.449283 -0 34.33529 -0 -5.896527 -15.0639 10.88692 -1.421662 -1.557511 3.500344 2.585221 10.80791 -9.033591 0.7224634 20.93814 7.057665 3.729302 -22.79659 7.304561 3.850842 -17.10375 11.71955 90.55216 30.73716 -24.51376 -0 0 9.353432 -15.39873 12.41602 7.049939 6.286665 -24.08774 -4.338238 -86.96945 22.65266 14.03137 0 0 -25.6016 6.691431 13.49275 5.968154
-50.65755 98.37787 2984.563 -0.9943054 -5.613462 -6.635425 5.19327 -19.22322 0.8823186 -0 13.31859 -0 -4.683834 -0.6951253 -5.832805 -3.465897 10.68406 -6.991323 -0 44.17146 -0 -6.502576 -12.46831 11.28079 -1.407725 -1.539932 3.848724 2.417109 10.86938 -8.721107 0.7429843 20.9148 6.976477 3.69091 -22.66618 7.233592 3.848507 -17.63243 11.77296 89.71678 30.72928 -23.24363 -0 0 10.48943 -15.86914 12.50978 7.517772 6.088368 -23.64256 -4.25288 -87.67001 22.6269 15.38818 0 0 -24.35527 6.211536 13.32331 6.555687
-51.81315 99.26277 2990.739 -1.088589 -6.363099 -7.083606 5.895651 -14.0261 2.227886 -0 14.70835 -0 -4.79914 -2.775935 -5.84137 -3.088177 6.311752 -6.94729 -0 52.85019 -0 -6.680065 -9.733445 12.36873 -1.388838 -1.510804 4.307708 2.188503 10.96076 -8.311015 0.7711132 20.88184 6.868791 3.634554 -22.46106 7.137016 3.833924 -18.31514 11.84388 88.63909 30.65806 -21.5793 -0 0 11.96644 -16.55468 12.66238 8.157758 5.826586 -23.06639 -4.153873 -88.54862 22.53136 17.11018 0 0 -22.7618 5.580215 13.05885 7.325351
-52.91349 100.4426 2996.6 -1.16138 -6.894838 -7.749297 6.211715 -8.218595 3.227927 -0 15.82631 -0 -4.981988 -5.15645 -5.508412 -2.605282 1.11643 -6.963033 -0 57.65283 -0 -6.529153 -7.423641 13.71933 -1.370324 -1.470359 4.821442 1.92699 11.06142 -7.85063 0.8047365 20.84443 6.749177 3.566973 -22.20589 7.030336 3.81647 -19.06248 11.9213 87.44743 30.53564 -19.71916 -0 0 13.60852 -17.36498 12.85066 8.892785 5.531542 -22.41805 -4.044943 -89.50358 22.39102 18.98603 0 0 -21.01146 4.855303 12.72386 8.210867
-53.92481 101.6075 3002.274 -1.223336 -7.12434 -8.55795 6.178684 -2.556056 3.59897 -0 15.72448 -0 -5.206971 -7.409407 -4.826673 -1.94584 -4.330394 -6.744461 -0 57.53894 -0 -6.156897 -5.841402 14.96015 -1.354625 -1.419258 5.363388 1.645977 11.1614 -7.362226 0.842801 20.80531 6.624342 3.491728 -21.91411 6.920916 3.800491 -19.83331 12.00013 86.20355 30.36875 -17.75762 -0 0 15.33322 -18.25432 13.06068 9.685459 5.217624 -21.72545 -3.927368 -90.48894 22.21969 20.91918 0 0 -19.19097 4.067086 12.33153 9.177708
-54.83324 102.4824 3007.899 -1.277207 -7.067516 -9.445136 5.968995 2.588368 3.418431 -0 14.26046 -0 -5.476139 -9.440925 -3.880513 -1.098227 -9.655112 -6.247449 -0 53.34461 -0 -5.618101 -4.948018 15.98404 -1.34217 -1.358052 5.925779 1.349112 11.25862 -6.852106 0.8850055 20.76553 6.495788 3.409906 -21.58929 6.810539 3.785852 -20.61664 12.0791 84.92948 30.15447 -15.72362 -0 0 17.11638 -19.21109 13.28628 10.52577 4.889148 -20.99782 -3.802159 -91.49067 22.01779 22.88105 0 0 -17.32424 3.229189 11.88507 10.21004
-55.63646 102.8926 3013.568 -1.311975 -6.820298 -10.36048 5.690228 7.139567 2.905252 -0 12.04035 -0 -5.74189 -11.23131 -2.803347 -0.1356139 -14.62679 -5.572498 -0 46.55782 -0 -4.967511 -4.569202 16.83197 -1.333333 -1.286955 6.499459 1.040203 11.35181 -6.327845 0.9311107 20.72622 6.36516 3.32224 -21.23295 6.700962 3.77115 -21.3985 12.15659 83.65122 29.88931 -13.65174 -0 0 18.928 -20.22648 13.52369 11.40341 4.551214 -20.2468 -3.672104 -92.48747 21.78512 24.83355 0 0 -15.44303 2.357051 11.38687 11.28922
-56.3377 102.7784 3019.33 -1.311268 -6.514987 -11.2562 5.347533 11.0747 2.274886 -0 10.02831 -0 -5.899617 -12.65377 -1.743629 0.8019423 -19.00083 -4.862812 -0 38.56296 -0 -4.286801 -4.554562 17.55352 -1.329241 -1.205976 7.06405 0.7282778 11.43742 -5.806824 0.9805472 20.68946 6.236797 3.230185 -20.849 6.596493 3.755005 -22.14635 12.22875 82.41758 29.57736 -11.61584 -0 0 20.7011 -21.27817 13.7694 12.29373 4.215107 -19.49696 -3.543193 -93.43217 21.53059 26.69369 0 0 -13.62069 1.477226 10.84471 12.38256
-56.94509 102.1959 3025.207 -1.264312 -6.291097 -12.07991 4.8889 14.29589 1.720935 -0 9.260592 -0 -5.82873 -13.48438 -0.8580486 1.520282 -22.45161 -4.289796 -0 30.62412 -0 -3.680971 -4.799725 18.1635 -1.331951 -1.115255 7.584278 0.4297573 11.50874 -5.319541 1.032199 20.65858 6.118656 3.136401 -20.4462 6.504848 3.736504 -22.80372 12.28869 81.30383 29.23707 -9.740024 -0 0 22.32049 -22.3225 14.01998 13.15154 3.900429 -18.78974 -3.425336 -94.24635 21.27902 28.3233 0 0 -11.98371 0.6307253 10.2762 13.43893
-57.47346 101.3085 3031.214 -1.171217 -6.273576 -12.77395 4.251019 16.64418 1.40582 -0 10.61688 -0 -5.430078 -13.4823 -0.3004091 1.810326 -24.62812 -4.027669 -0 23.91204 -0 -3.263718 -5.225192 18.64257 -1.344222 -1.015377 8.012539 0.1677394 11.55617 -4.907523 1.084383 20.63798 6.021821 3.044767 -20.03928 6.436639 3.715824 -23.29501 12.32716 80.40173 28.90448 -8.1874 -0 0 23.63191 -23.29431 14.27247 13.91293 3.633745 -18.1802 -3.331357 -94.82906 21.07292 29.54331 0 0 -10.70075 -0.1308171 9.71011 14.3933
-57.94465 100.3532 3037.363 -1.040832 -6.53847 -13.27949 3.402742 17.97099 1.416365 -0 14.53824 -0 -4.657135 -12.49445 -0.1870008 1.537998 -25.27787 -4.178196 -0 19.27782 -0 -3.124959 -5.772945 18.95044 -1.368521 -0.9078423 8.301252 -0.03353414 11.56993 -4.612771 1.135069 20.6319 5.957601 2.959683 -19.64716 6.402455 3.694485 -23.54638 12.33516 79.79373 28.62593 -7.116854 -0 0 24.48277 -24.12029 14.52446 14.51015 3.441859 -17.72315 -3.273525 -95.08595 20.96105 30.18374 0 0 -9.936701 -0.7574535 9.181884 15.18198
-58.38434 99.58032 3043.671 -0.8829633 -7.076787 -13.54477 2.380631 18.18282 1.725421 -0 20.81359 -0 -3.53953 -10.54923 -0.5574298 0.7220842 -24.33934 -4.713089 -0 16.98184 -0 -3.288672 -6.419913 19.04893 -1.405503 -0.7955795 8.419735 -0.1569018 11.54451 -4.463271 1.18218 20.64274 5.933337 2.88501 -19.28871 6.408556 3.67453 -23.51415 12.30786 79.52606 28.43989 -6.628431 -0 0 24.77674 -24.7419 14.77303 14.89379 3.342668 -17.4556 -3.259562 -94.96445 20.97519 30.14566 0 0 -9.792084 -1.214587 8.724704 15.75975
-58.81571 99.19028 3050.136 -0.7020254 -7.785154 -13.53653 1.294617 17.23671 2.207565 -0 28.60281 -0 -2.190561 -7.887783 -1.357925 -0.4793586 -21.94437 -5.506702 -0 16.67392 -0 -3.690438 -7.181774 18.92717 -1.45333 -0.6828568 8.362174 -0.1968086 11.4813 -4.466078 1.223808 20.67018 5.95031 2.823347 -18.97858 6.454693 3.657259 -23.19757 12.24637 79.60285 28.36189 -6.741005 -0 0 24.49837 -25.13097 15.01384 15.04528 3.340787 -17.38923 -3.291307 -94.46623 21.11369 29.42487 0 0 -10.27706 -1.487745 8.361871 16.10616
-59.25347 99.28774 3056.726 -0.498997 -8.493161 -13.2511 0.2983602 15.12997 2.698885 -0 36.67169 -0 -0.7963657 -4.914138 -2.449439 -1.850587 -18.36415 -6.421958 -0 17.62756 -0 -4.193 -8.095329 18.61328 -1.508426 -0.5744005 8.142696 -0.1576239 11.38717 -4.611338 1.258349 20.71163 6.004956 2.775982 -18.72546 6.535482 3.642844 -22.62892 12.15636 79.99971 28.38363 -7.411049 -0 0 23.69591 -25.28864 15.24155 14.97309 3.429996 -17.51552 -3.366116 -93.63276 21.34506 28.08792 0 0 -11.33255 -1.578452 8.104374 16.22095
-59.70188 99.86239 3063.368 -0.2804234 -9.011574 -12.72024 -0.4582179 11.92182 3.058704 -0 43.69207 -0 0.4102609 -2.095746 -3.629827 -3.188288 -13.96002 -7.366952 -0 19.01961 -0 -4.628242 -9.190856 18.16911 -1.566695 -0.4745313 7.786662 -0.04966323 11.27158 -4.8795 1.284598 20.76323 6.091111 2.743189 -18.53266 6.642954 3.63078 -21.8576 12.04573 80.67786 28.48119 -8.560516 -0 0 22.4528 -25.23598 15.45064 14.70273 3.597707 -17.8138 -3.478596 -92.52675 21.62233 26.2392 0 0 -12.86288 -1.498547 7.95234 16.1176
-60.15768 100.7972 3069.967 -0.06587891 -9.184532 -12.00745 -0.8734259 7.766944 3.208316 -0 48.53543 -0 1.19717 0.1508006 -4.67508 -4.334446 -9.141766 -8.300707 -0 20.13923 -0 -4.846488 -10.46988 17.67377 -1.624271 -0.3868325 7.324534 0.1138939 11.14452 -5.24638 1.301787 20.82063 6.20152 2.72456 -18.39965 6.768335 3.620243 -20.93951 11.92291 81.59078 28.62363 -10.09463 -0 0 20.8683 -25.00514 15.63589 14.26883 3.828188 -18.25683 -3.621761 -91.22116 21.89631 24.00118 0 0 -14.75678 -1.266088 7.898069 15.81832
-60.61643 101.9037 3076.426 0.1139374 -8.934247 -11.1933 -0.9186198 2.916521 3.138611 -0 50.53149 -0 1.403746 1.565395 -5.406298 -5.189503 -4.303306 -9.208943 -0 20.53354 -0 -4.762114 -11.89628 17.19829 -1.677869 -0.3141235 6.787976 0.3190613 11.01533 -5.686375 1.30957 20.87962 6.328725 2.719272 -18.3235 6.903077 3.610241 -19.93079 11.79587 82.68731 28.77981 -11.91255 -0 0 19.04535 -24.6328 15.79269 13.7096 4.104725 -18.8144 -3.7879 -89.79251 22.12497 21.50271 0 0 -16.89992 -0.9024305 7.929276 15.3503
-61.07914 102.9748 3082.668 0.22829 -8.282376 -10.35529 -0.6351046 -2.321411 2.887597 -0 49.59793 -0 1.003954 2.105643 -5.75324 -5.715682 0.250802 -10.07001 -0 20.08182 -0 -4.38271 -13.40057 16.77695 -1.724964 -0.2584225 6.207319 0.5523537 10.89205 -6.174528 1.308017 20.93648 6.465634 2.726229 -18.29989 7.039506 3.599752 -18.88378 11.67156 83.91377 28.92312 -13.91445 -0 0 17.0827 -24.15578 15.91742 13.0631 4.411044 -19.45568 -3.969213 -88.31518 22.27903 18.87023 0 0 -19.18293 -0.4305175 8.031532 14.74327
-61.5563 103.835 3088.66 0.2586685 -7.338739 -9.551913 -0.1113929 -7.627701 2.503751 -0 46.16955 -0 0.1158782 1.937221 -5.766943 -5.929147 4.337604 -10.82769 -0 18.96867 -0 -3.809939 -14.89123 16.38911 -1.763869 -0.2207746 5.610508 0.8012076 10.78098 -6.687231 1.297684 20.98828 6.605714 2.744029 -18.32322 7.171135 3.587842 -17.84516 11.55556 85.21492 29.03417 -16.00437 -0 0 15.07169 -23.6094 16.00796 12.36579 4.731865 -20.14994 -4.158086 -86.85748 22.34404 16.22239 0 0 -21.50458 0.1251534 8.189365 14.02924
-62.06769 104.3719 3094.425 0.2045172 -6.267621 -8.81669 0.5424593 -12.69511 2.018106 -0 40.99417 -0 -1.046502 1.367091 -5.575128 -5.884029 7.871802 -11.38438 -0 17.58314 -0 -3.213932 -16.26546 15.96196 -1.793719 -0.2009693 5.023418 1.053578 10.68667 -7.201616 1.279777 21.03304 6.742809 2.770727 -18.38579 7.292634 3.573574 -16.85608 11.45205 86.53335 29.10113 -18.08887 -0 0 13.09728 -23.02841 16.06423 11.65321 5.052682 -20.86566 -4.347114 -85.4798 22.31965 13.66868 0 0 -23.7703 0.7372523 8.386285 13.24374
